<svg width="90" height="43" viewBox="0 0 90 43" fill="none" xmlns="http://www.w3.org/2000/svg">
<rect width="90" height="43" fill="none"/>
<mask id="path-1-outside-1_0_1" maskUnits="userSpaceOnUse" x="4" y="10" width="81" height="23" fill="black">
<rect fill="white" x="4" y="10" width="81" height="23"/>
<path d="M22.1648 18.8693H17.9034C17.8466 18.4318 17.7301 18.0369 17.554 17.6847C17.3778 17.3324 17.1449 17.0312 16.8551 16.7812C16.5653 16.5312 16.2216 16.3409 15.8239 16.2102C15.4318 16.0739 14.9972 16.0057 14.5199 16.0057C13.6733 16.0057 12.9432 16.2131 12.3295 16.6278C11.7216 17.0426 11.2528 17.642 10.9233 18.4261C10.5994 19.2102 10.4375 20.1591 10.4375 21.2727C10.4375 22.4318 10.6023 23.4034 10.9318 24.1875C11.267 24.9659 11.7358 25.554 12.3381 25.9517C12.946 26.3437 13.6648 26.5398 14.4943 26.5398C14.9602 26.5398 15.3835 26.4801 15.7642 26.3608C16.1506 26.2415 16.4886 26.0682 16.7784 25.8409C17.0739 25.608 17.3153 25.3267 17.5028 24.9972C17.696 24.6619 17.8295 24.2841 17.9034 23.8636L22.1648 23.8892C22.0909 24.6619 21.8665 25.4233 21.4915 26.1733C21.1222 26.9233 20.6136 27.608 19.9659 28.2273C19.3182 28.8409 18.5284 29.3295 17.5966 29.6932C16.6705 30.0568 15.608 30.2386 14.4091 30.2386C12.8295 30.2386 11.4148 29.892 10.1648 29.1989C8.92045 28.5 7.9375 27.483 7.21591 26.1477C6.49432 24.8125 6.13352 23.1875 6.13352 21.2727C6.13352 19.3523 6.5 17.7244 7.23295 16.3892C7.96591 15.054 8.95739 14.0398 10.2074 13.3466C11.4574 12.6534 12.858 12.3068 14.4091 12.3068C15.4659 12.3068 16.4432 12.4545 17.3409 12.75C18.2386 13.0398 19.0284 13.4659 19.7102 14.0284C20.392 14.5852 20.946 15.2699 21.3722 16.0824C21.7983 16.8949 22.0625 17.8239 22.1648 18.8693ZM33.0249 24.3494V16.9091H37.1839V30H33.2124V27.5625H33.076C32.7862 28.3636 32.2919 29 31.593 29.4716C30.8999 29.9375 30.0618 30.1705 29.0788 30.1705C28.1868 30.1705 27.4027 29.9659 26.7266 29.5568C26.0504 29.1477 25.5249 28.5767 25.1499 27.8438C24.7749 27.1051 24.5845 26.2415 24.5788 25.2528V16.9091H28.7464V24.4347C28.7521 25.1449 28.9396 25.7045 29.3089 26.1136C29.6783 26.5227 30.1811 26.7273 30.8175 26.7273C31.2322 26.7273 31.6044 26.6364 31.9339 26.4545C32.2692 26.267 32.5334 25.9972 32.7266 25.6449C32.9254 25.2869 33.0249 24.8551 33.0249 24.3494ZM39.8366 30V16.9091H43.8849V19.2955H44.0213C44.2599 18.4318 44.6491 17.7898 45.1889 17.3693C45.7287 16.9432 46.3565 16.7301 47.0724 16.7301C47.2656 16.7301 47.4645 16.7443 47.669 16.7727C47.8736 16.7955 48.0639 16.8324 48.2401 16.8835V20.5057C48.0412 20.4375 47.7798 20.3835 47.456 20.3438C47.1378 20.304 46.8537 20.2841 46.6037 20.2841C46.1094 20.2841 45.6634 20.3949 45.2656 20.6165C44.8736 20.8324 44.5639 21.1364 44.3366 21.5284C44.1151 21.9148 44.0043 22.3693 44.0043 22.892V30H39.8366ZM63.0355 16.9091L58.544 30H53.7713L49.2884 16.9091H53.6776L56.0895 25.9261H56.2259L58.6463 16.9091H63.0355ZM77.3324 16.9091L72.8409 30H68.0682L63.5852 16.9091H67.9744L70.3864 25.9261H70.5227L72.9432 16.9091H77.3324ZM80.4538 30.2472C79.8402 30.2472 79.3146 30.0312 78.8771 29.5994C78.4453 29.1676 78.2322 28.6449 78.2379 28.0312C78.2322 27.429 78.4453 26.9148 78.8771 26.4886C79.3146 26.0568 79.8402 25.8409 80.4538 25.8409C81.0334 25.8409 81.5447 26.0568 81.9879 26.4886C82.4368 26.9148 82.6641 27.429 82.6697 28.0312C82.6641 28.4403 82.5561 28.8125 82.3459 29.1477C82.1413 29.483 81.8714 29.75 81.5362 29.9489C81.2067 30.1477 80.8459 30.2472 80.4538 30.2472Z"/>
</mask>
<path d="M22.1648 18.8693H17.9034C17.8466 18.4318 17.7301 18.0369 17.554 17.6847C17.3778 17.3324 17.1449 17.0312 16.8551 16.7812C16.5653 16.5312 16.2216 16.3409 15.8239 16.2102C15.4318 16.0739 14.9972 16.0057 14.5199 16.0057C13.6733 16.0057 12.9432 16.2131 12.3295 16.6278C11.7216 17.0426 11.2528 17.642 10.9233 18.4261C10.5994 19.2102 10.4375 20.1591 10.4375 21.2727C10.4375 22.4318 10.6023 23.4034 10.9318 24.1875C11.267 24.9659 11.7358 25.554 12.3381 25.9517C12.946 26.3437 13.6648 26.5398 14.4943 26.5398C14.9602 26.5398 15.3835 26.4801 15.7642 26.3608C16.1506 26.2415 16.4886 26.0682 16.7784 25.8409C17.0739 25.608 17.3153 25.3267 17.5028 24.9972C17.696 24.6619 17.8295 24.2841 17.9034 23.8636L22.1648 23.8892C22.0909 24.6619 21.8665 25.4233 21.4915 26.1733C21.1222 26.9233 20.6136 27.608 19.9659 28.2273C19.3182 28.8409 18.5284 29.3295 17.5966 29.6932C16.6705 30.0568 15.608 30.2386 14.4091 30.2386C12.8295 30.2386 11.4148 29.892 10.1648 29.1989C8.92045 28.5 7.9375 27.483 7.21591 26.1477C6.49432 24.8125 6.13352 23.1875 6.13352 21.2727C6.13352 19.3523 6.5 17.7244 7.23295 16.3892C7.96591 15.054 8.95739 14.0398 10.2074 13.3466C11.4574 12.6534 12.858 12.3068 14.4091 12.3068C15.4659 12.3068 16.4432 12.4545 17.3409 12.75C18.2386 13.0398 19.0284 13.4659 19.7102 14.0284C20.392 14.5852 20.946 15.2699 21.3722 16.0824C21.7983 16.8949 22.0625 17.8239 22.1648 18.8693ZM33.0249 24.3494V16.9091H37.1839V30H33.2124V27.5625H33.076C32.7862 28.3636 32.2919 29 31.593 29.4716C30.8999 29.9375 30.0618 30.1705 29.0788 30.1705C28.1868 30.1705 27.4027 29.9659 26.7266 29.5568C26.0504 29.1477 25.5249 28.5767 25.1499 27.8438C24.7749 27.1051 24.5845 26.2415 24.5788 25.2528V16.9091H28.7464V24.4347C28.7521 25.1449 28.9396 25.7045 29.3089 26.1136C29.6783 26.5227 30.1811 26.7273 30.8175 26.7273C31.2322 26.7273 31.6044 26.6364 31.9339 26.4545C32.2692 26.267 32.5334 25.9972 32.7266 25.6449C32.9254 25.2869 33.0249 24.8551 33.0249 24.3494ZM39.8366 30V16.9091H43.8849V19.2955H44.0213C44.2599 18.4318 44.6491 17.7898 45.1889 17.3693C45.7287 16.9432 46.3565 16.7301 47.0724 16.7301C47.2656 16.7301 47.4645 16.7443 47.669 16.7727C47.8736 16.7955 48.0639 16.8324 48.2401 16.8835V20.5057C48.0412 20.4375 47.7798 20.3835 47.456 20.3438C47.1378 20.304 46.8537 20.2841 46.6037 20.2841C46.1094 20.2841 45.6634 20.3949 45.2656 20.6165C44.8736 20.8324 44.5639 21.1364 44.3366 21.5284C44.1151 21.9148 44.0043 22.3693 44.0043 22.892V30H39.8366ZM63.0355 16.9091L58.544 30H53.7713L49.2884 16.9091H53.6776L56.0895 25.9261H56.2259L58.6463 16.9091H63.0355ZM77.3324 16.9091L72.8409 30H68.0682L63.5852 16.9091H67.9744L70.3864 25.9261H70.5227L72.9432 16.9091H77.3324ZM80.4538 30.2472C79.8402 30.2472 79.3146 30.0312 78.8771 29.5994C78.4453 29.1676 78.2322 28.6449 78.2379 28.0312C78.2322 27.429 78.4453 26.9148 78.8771 26.4886C79.3146 26.0568 79.8402 25.8409 80.4538 25.8409C81.0334 25.8409 81.5447 26.0568 81.9879 26.4886C82.4368 26.9148 82.6641 27.429 82.6697 28.0312C82.6641 28.4403 82.5561 28.8125 82.3459 29.1477C82.1413 29.483 81.8714 29.75 81.5362 29.9489C81.2067 30.1477 80.8459 30.2472 80.4538 30.2472Z" fill="white"/>
<path d="M22.1648 18.8693V20.8693H24.37L24.1553 18.6746L22.1648 18.8693ZM17.9034 18.8693L15.9201 19.1269L16.1464 20.8693H17.9034V18.8693ZM17.554 17.6847L15.7651 18.5791L15.7651 18.5791L17.554 17.6847ZM16.8551 16.7812L18.1616 15.2669L18.1616 15.2669L16.8551 16.7812ZM15.8239 16.2102L15.1668 18.0992L15.1831 18.1049L15.1996 18.1103L15.8239 16.2102ZM12.3295 16.6278L11.2095 14.9708L11.2024 14.9757L12.3295 16.6278ZM10.9233 18.4261L9.07949 17.6512L9.07477 17.6626L10.9233 18.4261ZM10.9318 24.1875L9.08804 24.9624L9.09145 24.9705L9.09492 24.9786L10.9318 24.1875ZM12.3381 25.9517L11.2359 27.6206L11.245 27.6266L11.2542 27.6325L12.3381 25.9517ZM15.7642 26.3608L15.1741 24.4498L15.166 24.4523L15.7642 26.3608ZM16.7784 25.8409L18.0127 27.4146L18.0167 27.4114L16.7784 25.8409ZM17.5028 24.9972L15.77 23.9985L15.7645 24.0081L17.5028 24.9972ZM17.9034 23.8636L17.9154 21.8637L16.2259 21.8535L15.9336 23.5176L17.9034 23.8636ZM22.1648 23.8892L24.1557 24.0795L24.3638 21.9024L22.1768 21.8892L22.1648 23.8892ZM21.4915 26.1733L19.7026 25.2789L19.6972 25.2898L21.4915 26.1733ZM19.9659 28.2273L21.3414 29.6792L21.3481 29.6728L19.9659 28.2273ZM17.5966 29.6932L16.8695 27.83L16.8656 27.8315L17.5966 29.6932ZM10.1648 29.1989L9.18537 30.9427L9.19484 30.9479L10.1648 29.1989ZM7.21591 26.1477L8.97541 25.1968L7.21591 26.1477ZM7.23295 16.3892L5.47974 15.4268L5.47974 15.4268L7.23295 16.3892ZM17.3409 12.75L16.7157 14.6498L16.7266 14.6533L17.3409 12.75ZM19.7102 14.0284L18.4374 15.5712L18.4452 15.5775L19.7102 14.0284ZM22.1648 16.8693H17.9034V20.8693H22.1648V16.8693ZM19.8868 18.6117C19.8046 17.979 19.6302 17.3649 19.3428 16.7902L15.7651 18.5791C15.8301 18.7089 15.8886 18.8847 15.9201 19.1269L19.8868 18.6117ZM19.3428 16.7902C19.052 16.2085 18.6574 15.6947 18.1616 15.2669L15.5486 18.2956C15.6324 18.3678 15.7037 18.4563 15.7651 18.5791L19.3428 16.7902ZM18.1616 15.2669C17.6541 14.8291 17.0728 14.5154 16.4482 14.3102L15.1996 18.1103C15.3703 18.1664 15.4766 18.2334 15.5486 18.2956L18.1616 15.2669ZM16.4809 14.3212C15.8486 14.1013 15.1879 14.0057 14.5199 14.0057V18.0057C14.8064 18.0057 15.0151 18.0464 15.1668 18.0992L16.4809 14.3212ZM14.5199 14.0057C13.333 14.0057 12.1996 14.3017 11.2095 14.9709L13.4495 18.2848C13.6868 18.1245 14.0136 18.0057 14.5199 18.0057V14.0057ZM11.2024 14.9757C10.2288 15.6399 9.53462 16.5684 9.07952 17.6512L12.7671 19.2011C12.9711 18.7157 13.2144 18.4453 13.4567 18.28L11.2024 14.9757ZM9.07477 17.6626C8.62495 18.7517 8.4375 19.975 8.4375 21.2727H12.4375C12.4375 20.3432 12.5739 19.6688 12.7718 19.1897L9.07477 17.6626ZM8.4375 21.2727C8.4375 22.6073 8.62528 23.8614 9.08804 24.9624L12.7756 23.4126C12.5793 22.9455 12.4375 22.2563 12.4375 21.2727H8.4375ZM9.09492 24.9786C9.5569 26.0513 10.2551 26.9729 11.2359 27.6206L13.4402 24.2828C13.2165 24.1351 12.9772 23.8805 12.7687 23.3964L9.09492 24.9786ZM11.2542 27.6325C12.2306 28.2622 13.3382 28.5398 14.4943 28.5398V24.5398C13.9914 24.5398 13.6614 24.4253 13.422 24.2709L11.2542 27.6325ZM14.4943 28.5398C15.1299 28.5398 15.7588 28.4584 16.3624 28.2692L15.166 24.4523C15.0083 24.5018 14.7906 24.5398 14.4943 24.5398V28.5398ZM16.3544 28.2717C16.9513 28.0874 17.5126 27.8068 18.0127 27.4146L15.5441 24.2672C15.4647 24.3295 15.3498 24.3956 15.1741 24.4498L16.3544 28.2717ZM18.0167 27.4114C18.5164 27.0175 18.9271 26.5382 19.2412 25.9862L15.7645 24.0081C15.7036 24.1152 15.6313 24.1984 15.5401 24.2704L18.0167 27.4114ZM19.2357 25.9958C19.5567 25.4387 19.7632 24.8361 19.8732 24.2097L15.9336 23.5176C15.8959 23.732 15.8353 23.8852 15.77 23.9986L19.2357 25.9958ZM17.8914 25.8636L22.1528 25.8892L22.1768 21.8892L17.9154 21.8637L17.8914 25.8636ZM20.1738 23.6989C20.1252 24.2075 19.9764 24.7314 19.7026 25.2789L23.2803 27.0677C23.7566 26.1152 24.0566 25.1164 24.1557 24.0795L20.1738 23.6989ZM19.6972 25.2898C19.4385 25.8151 19.0745 26.3125 18.5838 26.7817L21.3481 29.6728C22.1528 28.9034 22.8058 28.0315 23.2857 27.0568L19.6972 25.2898ZM18.5904 26.7754C18.1516 27.1911 17.5897 27.549 16.8695 27.83L18.3237 31.5563C19.4671 31.1101 20.4847 30.4908 21.3414 29.6792L18.5904 26.7754ZM16.8656 27.8315C16.2147 28.0871 15.4078 28.2386 14.4091 28.2386V32.2386C15.8082 32.2386 17.1262 32.0265 18.3275 31.5548L16.8656 27.8315ZM14.4091 28.2386C13.1325 28.2386 12.0576 27.9616 11.1347 27.4498L9.19484 30.9479C10.772 31.8225 12.5266 32.2386 14.4091 32.2386V28.2386ZM11.1442 27.4551C10.2508 26.9534 9.5291 26.2214 8.97541 25.1968L5.45641 27.0986C6.3459 28.7445 7.59006 30.0466 9.18538 30.9427L11.1442 27.4551ZM8.97541 25.1968C8.4477 24.2204 8.13352 22.9406 8.13352 21.2727H4.13352C4.13352 23.4344 4.54094 25.4046 5.45641 27.0986L8.97541 25.1968ZM8.13352 21.2727C8.13352 19.6026 8.45203 18.3247 8.98617 17.3516L5.47974 15.4268C4.54797 17.1242 4.13352 19.1019 4.13352 21.2727H8.13352ZM8.98617 17.3516C9.54995 16.3246 10.2793 15.5936 11.1773 15.0957L9.23745 11.5975C7.63542 12.4859 6.38186 13.7834 5.47974 15.4268L8.98617 17.3516ZM11.1773 15.0957C12.1056 14.5809 13.1676 14.3068 14.4091 14.3068V10.3068C12.5483 10.3068 10.8092 10.7259 9.23745 11.5975L11.1773 15.0957ZM14.4091 14.3068C15.2783 14.3068 16.042 14.428 16.7157 14.6498L17.9661 10.8502C16.8443 10.481 15.6535 10.3068 14.4091 10.3068V14.3068ZM16.7266 14.6533C17.4003 14.8708 17.9632 15.1799 18.4375 15.5712L20.983 12.4857C20.0936 11.7519 19.0769 11.2088 17.9553 10.8467L16.7266 14.6533ZM18.4452 15.5775C18.9094 15.9566 19.2946 16.4272 19.601 17.0113L23.1433 15.1534C22.5974 14.1125 21.8747 13.2139 20.9753 12.4793L18.4452 15.5775ZM19.601 17.0113C19.8913 17.5649 20.0935 18.2383 20.1743 19.064L24.1553 18.6746C24.0315 17.4094 23.7053 16.2249 23.1433 15.1534L19.601 17.0113ZM33.0249 16.9091V14.9091H31.0249V16.9091H33.0249ZM37.1839 16.9091H39.1839V14.9091H37.1839V16.9091ZM37.1839 30V32H39.1839V30H37.1839ZM33.2124 30H31.2124V32H33.2124V30ZM33.2124 27.5625H35.2124V25.5625H33.2124V27.5625ZM33.076 27.5625V25.5625H31.6726L31.1952 26.8822L33.076 27.5625ZM31.593 29.4716L32.7087 31.1315L32.7118 31.1294L31.593 29.4716ZM26.7266 29.5568L25.6912 31.268L25.6912 31.268L26.7266 29.5568ZM25.1499 27.8438L23.3665 28.7491L23.3694 28.7547L25.1499 27.8438ZM24.5788 25.2528L22.5788 25.2528L22.5789 25.2643L24.5788 25.2528ZM24.5788 16.9091V14.9091H22.5788V16.9091H24.5788ZM28.7464 16.9091H30.7464V14.9091H28.7464V16.9091ZM28.7464 24.4347H26.7464V24.4427L26.7465 24.4507L28.7464 24.4347ZM29.3089 26.1136L30.7935 24.7734L30.7935 24.7734L29.3089 26.1136ZM31.9339 26.4545L32.9001 28.2057L32.9103 28.2001L31.9339 26.4545ZM32.7266 25.6449L30.9782 24.6736L30.9729 24.6832L32.7266 25.6449ZM35.0249 24.3494V16.9091H31.0249V24.3494H35.0249ZM33.0249 18.9091H37.1839V14.9091H33.0249V18.9091ZM35.1839 16.9091V30H39.1839V16.9091H35.1839ZM37.1839 28H33.2124V32H37.1839V28ZM35.2124 30V27.5625H31.2124V30H35.2124ZM33.2124 25.5625H33.076V29.5625H33.2124V25.5625ZM31.1952 26.8822C31.0479 27.2895 30.8181 27.5817 30.4743 27.8137L32.7118 31.1294C33.7657 30.4183 34.5245 29.4378 34.9567 28.2428L31.1952 26.8822ZM30.4774 27.8117C30.169 28.019 29.7362 28.1705 29.0788 28.1705V32.1705C30.3874 32.1705 31.6307 31.856 32.7087 31.1315L30.4774 27.8117ZM29.0788 28.1705C28.5037 28.1705 28.087 28.0423 27.7619 27.8457L25.6912 31.268C26.7184 31.8895 27.8699 32.1705 29.0788 32.1705V28.1705ZM27.7619 27.8457C27.4173 27.6372 27.1435 27.3495 26.9304 26.9328L23.3694 28.7547C23.9062 29.8039 24.6835 30.6583 25.6912 31.268L27.7619 27.8457ZM26.9332 26.9384C26.7236 26.5255 26.583 25.9788 26.5788 25.2413L22.5789 25.2643C22.586 26.5041 22.8261 27.6847 23.3665 28.7491L26.9332 26.9384ZM26.5788 25.2528V16.9091H22.5788V25.2528H26.5788ZM24.5788 18.9091H28.7464V14.9091H24.5788V18.9091ZM26.7464 16.9091V24.4347H30.7464V16.9091H26.7464ZM26.7465 24.4507C26.7549 25.5053 27.0412 26.5863 27.8244 27.4538L30.7935 24.7734C30.8059 24.7872 30.8004 24.7895 30.7877 24.7517C30.7729 24.7074 30.7479 24.6046 30.7464 24.4187L26.7465 24.4507ZM27.8244 27.4538C28.6331 28.3496 29.7116 28.7273 30.8175 28.7273V24.7273C30.7653 24.7273 30.7336 24.7231 30.7187 24.7204C30.7044 24.7178 30.7052 24.7166 30.7167 24.7213C30.7286 24.7261 30.7448 24.7344 30.7618 24.7464C30.7787 24.7583 30.7893 24.7688 30.7935 24.7734L27.8244 27.4538ZM30.8175 28.7273C31.5349 28.7273 32.2453 28.567 32.9001 28.2057L30.9678 24.7034C30.9635 24.7058 30.9296 24.7273 30.8175 24.7273V28.7273ZM32.9103 28.2001C33.5884 27.8207 34.1153 27.272 34.4802 26.6066L30.9729 24.6832C30.9654 24.697 30.9598 24.7051 30.957 24.709C30.9542 24.7128 30.9532 24.7135 30.9543 24.7124C30.9555 24.7113 30.9571 24.7098 30.9588 24.7085C30.9605 24.7072 30.9605 24.7075 30.9576 24.709L32.9103 28.2001ZM34.4749 26.6162C34.8733 25.899 35.0249 25.1161 35.0249 24.3494H31.0249C31.0249 24.472 31.0127 24.554 31.0013 24.6038C30.9902 24.6519 30.9795 24.6714 30.9782 24.6736L34.4749 26.6162ZM39.8366 30H37.8366V32H39.8366V30ZM39.8366 16.9091V14.9091H37.8366V16.9091H39.8366ZM43.8849 16.9091H45.8849V14.9091H43.8849V16.9091ZM43.8849 19.2955H41.8849V21.2955H43.8849V19.2955ZM44.0213 19.2955V21.2955H45.5436L45.9491 19.8281L44.0213 19.2955ZM45.1889 17.3693L46.418 18.9472L46.4282 18.9391L45.1889 17.3693ZM47.669 16.7727L47.3939 18.7537L47.421 18.7575L47.4482 18.7605L47.669 16.7727ZM48.2401 16.8835H50.2401V15.3816L48.7977 14.9628L48.2401 16.8835ZM48.2401 20.5057L47.5914 22.3976L50.2401 23.3057V20.5057H48.2401ZM47.456 20.3438L47.2079 22.3283L47.2122 22.3288L47.456 20.3438ZM45.2656 20.6165L46.2304 22.3684L46.239 22.3636L45.2656 20.6165ZM44.3366 21.5284L42.6063 20.5253L42.6017 20.5334L44.3366 21.5284ZM44.0043 30V32H46.0043V30H44.0043ZM41.8366 30V16.9091H37.8366V30H41.8366ZM39.8366 18.9091H43.8849V14.9091H39.8366V18.9091ZM41.8849 16.9091V19.2955H45.8849V16.9091H41.8849ZM43.8849 21.2955H44.0213V17.2955H43.8849V21.2955ZM45.9491 19.8281C46.1086 19.2509 46.309 19.032 46.418 18.9471L43.9599 15.7915C42.9893 16.5476 42.4113 17.6128 42.0935 18.7628L45.9491 19.8281ZM46.4282 18.9391C46.5997 18.8037 46.7864 18.7301 47.0724 18.7301V14.7301C45.9267 14.7301 44.8577 15.0827 43.9496 15.7996L46.4282 18.9391ZM47.0724 18.7301C47.1675 18.7301 47.2743 18.7371 47.3939 18.7537L47.9442 14.7917C47.6547 14.7515 47.3637 14.7301 47.0724 14.7301V18.7301ZM47.4482 18.7605C47.5523 18.7721 47.6288 18.7886 47.6824 18.8042L48.7977 14.9628C48.499 14.8761 48.1948 14.8188 47.8899 14.785L47.4482 18.7605ZM46.2401 16.8835V20.5057H50.2401V16.8835H46.2401ZM48.8887 18.6138C48.5074 18.4831 48.0948 18.4072 47.6997 18.3587L47.2122 22.3288C47.3316 22.3435 47.423 22.3588 47.4904 22.3727C47.5236 22.3796 47.5485 22.3856 47.5661 22.3903C47.5838 22.395 47.5918 22.3977 47.5914 22.3976L48.8887 18.6138ZM47.704 18.3592C47.3253 18.3118 46.9559 18.2841 46.6037 18.2841V22.2841C46.7514 22.2841 46.9503 22.2961 47.2079 22.3283L47.704 18.3592ZM46.6037 18.2841C45.7987 18.2841 45.0127 18.4679 44.2922 18.8693L46.239 22.3636C46.314 22.3219 46.4201 22.2841 46.6037 22.2841V18.2841ZM44.3008 18.8646C43.5861 19.2582 43.0136 19.8229 42.6064 20.5253L46.0669 22.5315C46.1143 22.4498 46.161 22.4066 46.2304 22.3684L44.3008 18.8646ZM42.6017 20.5334C42.1784 21.2715 42.0043 22.0812 42.0043 22.892H46.0043C46.0043 22.6574 46.0517 22.558 46.0716 22.5234L42.6017 20.5334ZM42.0043 22.892V30H46.0043V22.892H42.0043ZM44.0043 28H39.8366V32H44.0043V28ZM63.0355 16.9091L64.9273 17.5581L65.8362 14.9091H63.0355V16.9091ZM58.544 30V32H59.9723L60.4358 30.6491L58.544 30ZM53.7713 30L51.8792 30.648L52.3422 32H53.7713V30ZM49.2884 16.9091V14.9091H46.4894L47.3962 17.557L49.2884 16.9091ZM53.6776 16.9091L55.6096 16.3923L55.2129 14.9091H53.6776V16.9091ZM56.0895 25.9261L54.1574 26.4429L54.5541 27.9261H56.0895V25.9261ZM56.2259 25.9261V27.9261H57.7598L58.1575 26.4446L56.2259 25.9261ZM58.6463 16.9091V14.9091H57.1124L56.7147 16.3906L58.6463 16.9091ZM61.1438 16.26L56.6523 29.3509L60.4358 30.6491L64.9273 17.5581L61.1438 16.26ZM58.544 28H53.7713V32H58.544V28ZM55.6634 29.352L51.1805 16.2611L47.3962 17.557L51.8792 30.648L55.6634 29.352ZM49.2884 18.9091H53.6776V14.9091H49.2884V18.9091ZM51.7455 17.4259L54.1574 26.4429L58.0216 25.4093L55.6096 16.3923L51.7455 17.4259ZM56.0895 27.9261H56.2259V23.9261H56.0895V27.9261ZM58.1575 26.4446L60.5779 17.4276L56.7147 16.3906L54.2942 25.4076L58.1575 26.4446ZM58.6463 18.9091H63.0355V14.9091H58.6463V18.9091ZM77.3324 16.9091L79.2241 17.5581L80.133 14.9091H77.3324V16.9091ZM72.8409 30V32H74.2692L74.7327 30.6491L72.8409 30ZM68.0682 30L66.1761 30.648L66.6391 32H68.0682V30ZM63.5852 16.9091V14.9091H60.7863L61.6931 17.557L63.5852 16.9091ZM67.9744 16.9091L69.9065 16.3923L69.5098 14.9091H67.9744V16.9091ZM70.3864 25.9261L68.4543 26.4429L68.851 27.9261H70.3864V25.9261ZM70.5227 25.9261V27.9261H72.0567L72.4543 26.4446L70.5227 25.9261ZM72.9432 16.9091V14.9091H71.4092L71.0116 16.3906L72.9432 16.9091ZM75.4406 16.26L70.9492 29.3509L74.7327 30.6491L79.2241 17.5581L75.4406 16.26ZM72.8409 28H68.0682V32H72.8409V28ZM69.9603 29.352L65.4774 16.2611L61.6931 17.557L66.1761 30.648L69.9603 29.352ZM63.5852 18.9091H67.9744V14.9091H63.5852V18.9091ZM66.0424 17.4259L68.4543 26.4429L72.3184 25.4093L69.9065 16.3923L66.0424 17.4259ZM70.3864 27.9261H70.5227V23.9261H70.3864V27.9261ZM72.4543 26.4446L74.8748 17.4276L71.0116 16.3906L68.5911 25.4076L72.4543 26.4446ZM72.9432 18.9091H77.3324V14.9091H72.9432V18.9091ZM78.8771 29.5994L77.4629 31.0137L77.4722 31.0229L78.8771 29.5994ZM78.2379 28.0312L80.2378 28.0498L80.238 28.0311L80.2378 28.0124L78.2379 28.0312ZM78.8771 26.4886L80.2819 27.9122L80.2821 27.9121L78.8771 26.4886ZM81.9879 26.4886L80.5922 27.9211L80.6015 27.9302L80.6109 27.9391L81.9879 26.4886ZM82.6697 28.0312L84.6696 28.059L84.6699 28.0357L84.6697 28.0124L82.6697 28.0312ZM82.3459 29.1477L80.6515 28.0851L80.645 28.0955L80.6386 28.106L82.3459 29.1477ZM81.5362 29.9489L80.5158 28.2288L80.5093 28.2326L80.5029 28.2365L81.5362 29.9489ZM80.4538 28.2472C80.3867 28.2472 80.3624 28.2365 80.3594 28.2353C80.3564 28.234 80.3309 28.2242 80.2821 28.176L77.4722 31.0229C78.2832 31.8234 79.3133 32.2472 80.4538 32.2472V28.2472ZM80.2913 28.1852C80.2682 28.1621 80.2566 28.1464 80.2515 28.1389C80.2467 28.1318 80.2456 28.1287 80.2455 28.1286C80.2455 28.1285 80.2439 28.125 80.2422 28.1154C80.2404 28.1054 80.2375 28.0844 80.2378 28.0498L76.238 28.0127C76.2274 29.1602 76.6494 30.2001 77.4629 31.0136L80.2913 28.1852ZM80.2378 28.0124C80.2376 27.9829 80.24 27.9668 80.241 27.9613C80.242 27.9562 80.2424 27.9565 80.2411 27.9595C80.2399 27.9624 80.2398 27.9616 80.2437 27.9559C80.2478 27.9499 80.2589 27.9349 80.2819 27.9122L77.4723 25.0651C76.6582 25.8685 76.2272 26.9019 76.238 28.0501L80.2378 28.0124ZM80.2821 27.9121C80.3309 27.8639 80.3564 27.8541 80.3594 27.8528C80.3624 27.8516 80.3867 27.8409 80.4538 27.8409V23.8409C79.3133 23.8409 78.2832 24.2647 77.4722 25.0652L80.2821 27.9121ZM80.4538 27.8409C80.4739 27.8409 80.4842 27.8427 80.4874 27.8433C80.4904 27.8439 80.4919 27.8444 80.4941 27.8453C80.4952 27.8458 80.5287 27.8593 80.5922 27.9211L83.3837 25.0562C82.5949 24.2876 81.5925 23.8409 80.4538 23.8409V27.8409ZM80.6109 27.9391C80.6384 27.9652 80.6527 27.9833 80.6592 27.9923C80.6654 28.001 80.6665 28.0041 80.6657 28.0024C80.665 28.0007 80.6653 28.0005 80.6661 28.0046C80.667 28.009 80.6696 28.0232 80.6698 28.0501L84.6697 28.0124C84.6587 26.8516 84.1946 25.8258 83.3649 25.0382L80.6109 27.9391ZM80.6699 28.0035C80.6694 28.0388 80.665 28.0554 80.6637 28.06C80.6625 28.0642 80.6602 28.0713 80.6515 28.0851L84.0403 30.2103C84.452 29.5538 84.659 28.8215 84.6696 28.059L80.6699 28.0035ZM80.6386 28.106C80.6029 28.1646 80.5679 28.1978 80.5158 28.2288L82.5566 31.669C83.175 31.3022 83.6798 30.8013 84.0532 30.1895L80.6386 28.106ZM80.5029 28.2365C80.4958 28.2408 80.4916 28.2427 80.4899 28.2434C80.4883 28.2441 80.4875 28.2443 80.4871 28.2445C80.4866 28.2446 80.4846 28.2451 80.4801 28.2457C80.4756 28.2463 80.4671 28.2472 80.4538 28.2472V32.2472C81.203 32.2472 81.9221 32.0519 82.5696 31.6612L80.5029 28.2365Z" fill="black" mask="url(#path-1-outside-1_0_1)"/>
</svg>
